<svg width="118" height="31" viewBox="0 0 118 31" fill="none" xmlns="http://www.w3.org/2000/svg">
<g clip-path="url(#clip0_41_8)">
<path d="M36.2955 22.2557C35.017 22.2557 33.9091 21.9744 32.9716 21.4119C32.0341 20.8494 31.3068 20.0625 30.7898 19.0511C30.2784 18.0398 30.0227 16.858 30.0227 15.5057C30.0227 14.1534 30.2784 12.9687 30.7898 11.9517C31.3068 10.9347 32.0341 10.1449 32.9716 9.58239C33.9091 9.01989 35.017 8.73864 36.2955 8.73864C37.5739 8.73864 38.6818 9.01989 39.6193 9.58239C40.5568 10.1449 41.2813 10.9347 41.7926 11.9517C42.3097 12.9687 42.5682 14.1534 42.5682 15.5057C42.5682 16.858 42.3097 18.0398 41.7926 19.0511C41.2813 20.0625 40.5568 20.8494 39.6193 21.4119C38.6818 21.9744 37.5739 22.2557 36.2955 22.2557ZM36.3125 19.7841C37.0057 19.7841 37.5852 19.5937 38.0511 19.2131C38.517 18.8267 38.8636 18.3097 39.0909 17.6619C39.3239 17.0142 39.4403 16.2926 39.4403 15.4972C39.4403 14.696 39.3239 13.9716 39.0909 13.3239C38.8636 12.6705 38.517 12.1506 38.0511 11.7642C37.5852 11.3778 37.0057 11.1847 36.3125 11.1847C35.6023 11.1847 35.0114 11.3778 34.5398 11.7642C34.0739 12.1506 33.7244 12.6705 33.4915 13.3239C33.2642 13.9716 33.1506 14.696 33.1506 15.4972C33.1506 16.2926 33.2642 17.0142 33.4915 17.6619C33.7244 18.3097 34.0739 18.8267 34.5398 19.2131C35.0114 19.5937 35.6023 19.7841 36.3125 19.7841ZM48.272 4.54545V22H45.1868V4.54545H48.272ZM53.3622 26.9091C52.9418 26.9091 52.5526 26.875 52.1946 26.8068C51.8423 26.7443 51.5611 26.6705 51.3509 26.5852L52.0668 24.1818C52.5156 24.3125 52.9162 24.375 53.2685 24.3693C53.6207 24.3636 53.9304 24.2528 54.1974 24.0369C54.4702 23.8267 54.7003 23.4744 54.8878 22.9801L55.152 22.2727L50.4048 8.90909H53.6776L56.6946 18.7955H56.831L59.8565 8.90909H63.1378L57.8963 23.5852C57.652 24.2784 57.3281 24.8722 56.9247 25.3665C56.5213 25.8665 56.027 26.2472 55.4418 26.5085C54.8622 26.7756 54.169 26.9091 53.3622 26.9091ZM65.2727 26.9091V8.90909H68.3068V11.0739H68.4858C68.6449 10.7557 68.8693 10.4176 69.1591 10.0597C69.4489 9.69602 69.8409 9.38636 70.3352 9.13068C70.8295 8.86932 71.4602 8.73864 72.2273 8.73864C73.2386 8.73864 74.1506 8.99716 74.9631 9.5142C75.7813 10.0256 76.429 10.7841 76.9062 11.7898C77.3892 12.7898 77.6307 14.017 77.6307 15.4716C77.6307 16.9091 77.3949 18.1307 76.9233 19.1364C76.4517 20.142 75.8097 20.9091 74.9972 21.4375C74.1847 21.9659 73.2642 22.2301 72.2358 22.2301C71.4858 22.2301 70.8636 22.1051 70.3693 21.8551C69.875 21.6051 69.4773 21.304 69.1761 20.9517C68.8807 20.5937 68.6506 20.2557 68.4858 19.9375H68.358V26.9091H65.2727ZM68.2983 15.4545C68.2983 16.3011 68.4176 17.0426 68.6562 17.679C68.9006 18.3153 69.25 18.8125 69.7045 19.1705C70.1648 19.5227 70.7216 19.6989 71.375 19.6989C72.0568 19.6989 72.6278 19.517 73.0881 19.1534C73.5483 18.7841 73.8949 18.2812 74.1278 17.6449C74.3665 17.0028 74.4858 16.2727 74.4858 15.4545C74.4858 14.642 74.3693 13.9205 74.1364 13.2898C73.9034 12.6591 73.5568 12.1648 73.0966 11.8068C72.6364 11.4489 72.0625 11.2699 71.375 11.2699C70.7159 11.2699 70.1562 11.4432 69.696 11.7898C69.2358 12.1364 68.8864 12.6222 68.6477 13.2472C68.4148 13.8722 68.2983 14.608 68.2983 15.4545ZM86.8097 8.90909V11.2955H79.2841V8.90909H86.8097ZM81.142 5.77273H84.2273V18.0625C84.2273 18.4773 84.2898 18.7955 84.4148 19.017C84.5455 19.233 84.7159 19.3807 84.9261 19.4602C85.1364 19.5398 85.3693 19.5795 85.625 19.5795C85.8182 19.5795 85.9943 19.5653 86.1534 19.5369C86.3182 19.5085 86.4432 19.483 86.5284 19.4602L87.0483 21.8722C86.8835 21.929 86.6477 21.9915 86.3409 22.0597C86.0398 22.1278 85.6705 22.1676 85.233 22.179C84.4602 22.2017 83.7642 22.0852 83.1449 21.8295C82.5256 21.5682 82.0341 21.1648 81.6705 20.6193C81.3125 20.0739 81.1364 19.392 81.142 18.5739V5.77273ZM89.3899 22V8.90909H92.4751V22H89.3899ZM90.9411 7.05114C90.4524 7.05114 90.032 6.8892 89.6797 6.56534C89.3274 6.23579 89.1513 5.84091 89.1513 5.38068C89.1513 4.91477 89.3274 4.51989 89.6797 4.19602C90.032 3.86648 90.4524 3.7017 90.9411 3.7017C91.4354 3.7017 91.8558 3.86648 92.2024 4.19602C92.5547 4.51989 92.7308 4.91477 92.7308 5.38068C92.7308 5.84091 92.5547 6.23579 92.2024 6.56534C91.8558 6.8892 91.4354 7.05114 90.9411 7.05114ZM98.4602 17.892L98.4517 14.1676H98.946L103.651 8.90909H107.256L101.469 15.3523H100.83L98.4602 17.892ZM95.6477 22V4.54545H98.733V22H95.6477ZM103.864 22L99.6023 16.0426L101.682 13.8693L107.554 22H103.864Z" fill="white"/>
<circle cx="14.5" cy="15.5" r="9.5" fill="white"/>
<circle cx="14.5" cy="15.5" r="7.6" fill="black"/>
<ellipse cx="12.6" cy="17.4" rx="5.7" ry="5.7" fill="white"/>
</g>
<defs>
<clipPath id="clip0_41_8">
<rect width="118" height="31" fill="white"/>
</clipPath>
</defs>
</svg>
