<svg width="230" height="60" viewBox="0 0 230 60" fill="none" xmlns="http://www.w3.org/2000/svg">
<path d="M97.5 44.5114C94.9432 44.5114 92.7273 43.9489 90.8523 42.8239C88.9773 41.6989 87.5227 40.125 86.4886 38.1023C85.4659 36.0795 84.9545 33.7159 84.9545 31.0114C84.9545 28.3068 85.4659 25.9375 86.4886 23.9034C87.5227 21.8693 88.9773 20.2898 90.8523 19.1648C92.7273 18.0398 94.9432 17.4773 97.5 17.4773C100.057 17.4773 102.273 18.0398 104.148 19.1648C106.023 20.2898 107.472 21.8693 108.494 23.9034C109.528 25.9375 110.045 28.3068 110.045 31.0114C110.045 33.7159 109.528 36.0795 108.494 38.1023C107.472 40.125 106.023 41.6989 104.148 42.8239C102.273 43.9489 100.057 44.5114 97.5 44.5114ZM97.5341 39.5682C98.9204 39.5682 100.08 39.1875 101.011 38.4261C101.943 37.6534 102.636 36.6193 103.091 35.3239C103.557 34.0284 103.79 32.5852 103.79 30.9943C103.79 29.392 103.557 27.9432 103.091 26.6477C102.636 25.3409 101.943 24.3011 101.011 23.5284C100.08 22.7557 98.9204 22.3693 97.5341 22.3693C96.1136 22.3693 94.9318 22.7557 93.9886 23.5284C93.0568 24.3011 92.3579 25.3409 91.892 26.6477C91.4375 27.9432 91.2102 29.392 91.2102 30.9943C91.2102 32.5852 91.4375 34.0284 91.892 35.3239C92.3579 36.6193 93.0568 37.6534 93.9886 38.4261C94.9318 39.1875 96.1136 39.5682 97.5341 39.5682ZM118.573 9.09091V44H112.403V9.09091H118.573ZM125.874 53.8182C125.033 53.8182 124.254 53.75 123.538 53.6136C122.834 53.4886 122.271 53.3409 121.851 53.1705L123.283 48.3636C124.18 48.625 124.981 48.75 125.686 48.7386C126.391 48.7273 127.01 48.5057 127.544 48.0739C128.089 47.6534 128.55 46.9489 128.925 45.9602L129.453 44.5455L119.959 17.8182H126.504L132.538 37.5909H132.811L138.862 17.8182H145.425L134.942 47.1705C134.453 48.5568 133.805 49.7443 132.999 50.733C132.192 51.733 131.203 52.4943 130.033 53.017C128.874 53.5511 127.487 53.8182 125.874 53.8182ZM146.815 53.8182V17.8182H152.883V22.1477H153.241C153.559 21.5114 154.008 20.8352 154.587 20.1193C155.167 19.392 155.951 18.7727 156.94 18.2614C157.928 17.7386 159.19 17.4773 160.724 17.4773C162.746 17.4773 164.57 17.9943 166.195 19.0284C167.832 20.0511 169.127 21.5682 170.082 23.5795C171.047 25.5795 171.53 28.0341 171.53 30.9432C171.53 33.8182 171.059 36.2614 170.116 38.2727C169.172 40.2841 167.888 41.8182 166.263 42.875C164.638 43.9318 162.797 44.4602 160.741 44.4602C159.241 44.4602 157.996 44.2102 157.008 43.7102C156.019 43.2102 155.224 42.608 154.621 41.9034C154.03 41.1875 153.57 40.5114 153.241 39.875H152.985V53.8182H146.815ZM152.866 30.9091C152.866 32.6023 153.104 34.0852 153.582 35.358C154.07 36.6307 154.769 37.625 155.678 38.3409C156.599 39.0455 157.712 39.3977 159.019 39.3977C160.383 39.3977 161.525 39.0341 162.445 38.3068C163.366 37.5682 164.059 36.5625 164.525 35.2898C165.002 34.0057 165.241 32.5455 165.241 30.9091C165.241 29.2841 165.008 27.8409 164.542 26.5795C164.076 25.3182 163.383 24.3295 162.462 23.6136C161.542 22.8977 160.394 22.5398 159.019 22.5398C157.701 22.5398 156.582 22.8864 155.661 23.5795C154.741 24.2727 154.042 25.2443 153.565 26.4943C153.099 27.7443 152.866 29.2159 152.866 30.9091ZM187.008 17.8182V22.5909H171.957V17.8182H187.008ZM175.673 11.5455H181.844V36.125C181.844 36.9545 181.969 37.5909 182.219 38.0341C182.48 38.4659 182.821 38.7614 183.241 38.9205C183.662 39.0795 184.128 39.1591 184.639 39.1591C185.025 39.1591 185.378 39.1307 185.696 39.0739C186.025 39.017 186.275 38.9659 186.446 38.9205L187.486 43.7443C187.156 43.858 186.685 43.983 186.071 44.1193C185.469 44.2557 184.73 44.3352 183.855 44.358C182.31 44.4034 180.917 44.1705 179.679 43.6591C178.44 43.1364 177.457 42.3295 176.73 41.2386C176.014 40.1477 175.662 38.7841 175.673 37.1477V11.5455ZM189.289 44V17.8182H195.459V44H189.289ZM192.391 14.1023C191.414 14.1023 190.573 13.7784 189.868 13.1307C189.164 12.4716 188.812 11.6818 188.812 10.7614C188.812 9.82954 189.164 9.03977 189.868 8.39204C190.573 7.73295 191.414 7.40341 192.391 7.40341C193.38 7.40341 194.221 7.73295 194.914 8.39204C195.618 9.03977 195.971 9.82954 195.971 10.7614C195.971 11.6818 195.618 12.4716 194.914 13.1307C194.221 13.7784 193.38 14.1023 192.391 14.1023ZM204.55 35.7841L204.532 28.3352H205.521L214.93 17.8182H222.14L210.567 30.7045H209.288L204.55 35.7841ZM198.925 44V9.09091H205.095V44H198.925ZM215.356 44L206.834 32.0852L210.993 27.7386L222.737 44H215.356Z" fill="black"/>
<g filter="url(#filter0_i_3_2)">
<rect x="29.5806" y="38.4655" width="42.4194" height="13.8679" rx="6.93394" fill="#4F46E5"/>
</g>
<g filter="url(#filter1_i_3_2)">
<rect x="10.8182" y="7.46666" width="61.1818" height="26.92" rx="13.46" fill="#4F46E5"/>
</g>
<g filter="url(#filter2_i_3_2)">
<rect x="10.8182" y="38.4655" width="13.8679" height="13.8679" rx="6.93394" fill="#4F46E5"/>
</g>
<defs>
<filter id="filter0_i_3_2" x="29.5806" y="36.4655" width="42.4194" height="15.8679" filterUnits="userSpaceOnUse" color-interpolation-filters="sRGB">
<feFlood flood-opacity="0" result="BackgroundImageFix"/>
<feBlend mode="normal" in="SourceGraphic" in2="BackgroundImageFix" result="shape"/>
<feColorMatrix in="SourceAlpha" type="matrix" values="0 0 0 0 0 0 0 0 0 0 0 0 0 0 0 0 0 0 127 0" result="hardAlpha"/>
<feOffset dy="-4"/>
<feGaussianBlur stdDeviation="1"/>
<feComposite in2="hardAlpha" operator="arithmetic" k2="-1" k3="1"/>
<feColorMatrix type="matrix" values="0 0 0 0 0 0 0 0 0 0 0 0 0 0 0 0 0 0 0.15 0"/>
<feBlend mode="normal" in2="shape" result="effect1_innerShadow_3_2"/>
</filter>
<filter id="filter1_i_3_2" x="10.8182" y="4.46666" width="61.1818" height="29.92" filterUnits="userSpaceOnUse" color-interpolation-filters="sRGB">
<feFlood flood-opacity="0" result="BackgroundImageFix"/>
<feBlend mode="normal" in="SourceGraphic" in2="BackgroundImageFix" result="shape"/>
<feColorMatrix in="SourceAlpha" type="matrix" values="0 0 0 0 0 0 0 0 0 0 0 0 0 0 0 0 0 0 127 0" result="hardAlpha"/>
<feOffset dy="-6"/>
<feGaussianBlur stdDeviation="1.5"/>
<feComposite in2="hardAlpha" operator="arithmetic" k2="-1" k3="1"/>
<feColorMatrix type="matrix" values="0 0 0 0 0 0 0 0 0 0 0 0 0 0 0 0 0 0 0.15 0"/>
<feBlend mode="normal" in2="shape" result="effect1_innerShadow_3_2"/>
</filter>
<filter id="filter2_i_3_2" x="10.8182" y="36.4655" width="13.8679" height="15.8679" filterUnits="userSpaceOnUse" color-interpolation-filters="sRGB">
<feFlood flood-opacity="0" result="BackgroundImageFix"/>
<feBlend mode="normal" in="SourceGraphic" in2="BackgroundImageFix" result="shape"/>
<feColorMatrix in="SourceAlpha" type="matrix" values="0 0 0 0 0 0 0 0 0 0 0 0 0 0 0 0 0 0 127 0" result="hardAlpha"/>
<feOffset dy="-4"/>
<feGaussianBlur stdDeviation="1"/>
<feComposite in2="hardAlpha" operator="arithmetic" k2="-1" k3="1"/>
<feColorMatrix type="matrix" values="0 0 0 0 0 0 0 0 0 0 0 0 0 0 0 0 0 0 0.15 0"/>
<feBlend mode="normal" in2="shape" result="effect1_innerShadow_3_2"/>
</filter>
</defs>
</svg>
