<svg width="77" height="17" viewBox="0 0 77 17" fill="none" xmlns="http://www.w3.org/2000/svg">
<g clip-path="url(#clip0_3_70)">
<rect x="1" y="2" width="16" height="2.36364" rx="1.18182" fill="black"/>
<rect x="3.10527" y="6.72727" width="11.7895" height="2.36364" rx="1.18182" fill="black"/>
<rect x="6.47368" y="11.4545" width="5.05263" height="2.36364" rx="1.18182" fill="black"/>
<path d="M32.5455 7.18182C32.5455 8.43561 32.3106 9.50947 31.8409 10.4034C31.375 11.2936 30.7386 11.9754 29.9318 12.4489C29.1288 12.9223 28.2178 13.1591 27.1989 13.1591C26.1799 13.1591 25.267 12.9223 24.4602 12.4489C23.6572 11.9716 23.0208 11.2879 22.5511 10.3977C22.0852 9.50379 21.8523 8.43182 21.8523 7.18182C21.8523 5.92803 22.0852 4.85606 22.5511 3.96591C23.0208 3.07197 23.6572 2.38826 24.4602 1.91477C25.267 1.44129 26.1799 1.20455 27.1989 1.20455C28.2178 1.20455 29.1288 1.44129 29.9318 1.91477C30.7386 2.38826 31.375 3.07197 31.8409 3.96591C32.3106 4.85606 32.5455 5.92803 32.5455 7.18182ZM30.4261 7.18182C30.4261 6.29924 30.2879 5.55492 30.0114 4.94886C29.7386 4.33902 29.3598 3.87879 28.875 3.56818C28.3902 3.25379 27.8314 3.09659 27.1989 3.09659C26.5663 3.09659 26.0076 3.25379 25.5227 3.56818C25.0379 3.87879 24.6572 4.33902 24.3807 4.94886C24.108 5.55492 23.9716 6.29924 23.9716 7.18182C23.9716 8.06439 24.108 8.81061 24.3807 9.42045C24.6572 10.0265 25.0379 10.4867 25.5227 10.8011C26.0076 11.1117 26.5663 11.267 27.1989 11.267C27.8314 11.267 28.3902 11.1117 28.875 10.8011C29.3598 10.4867 29.7386 10.0265 30.0114 9.42045C30.2879 8.81061 30.4261 8.06439 30.4261 7.18182ZM36.5043 1.36364V13H34.4474V1.36364H36.5043ZM39.8977 16.2727C39.6174 16.2727 39.358 16.25 39.1193 16.2045C38.8845 16.1629 38.697 16.1136 38.5568 16.0568L39.0341 14.4545C39.3333 14.5417 39.6004 14.5833 39.8352 14.5795C40.0701 14.5758 40.2765 14.5019 40.4545 14.358C40.6364 14.2178 40.7898 13.983 40.9148 13.6534L41.0909 13.1818L37.9261 4.27273H40.108L42.1193 10.8636H42.2102L44.2273 4.27273H46.4148L42.9205 14.0568C42.7576 14.5189 42.5417 14.9148 42.2727 15.2443C42.0038 15.5777 41.6742 15.8314 41.2841 16.0057C40.8977 16.1837 40.4356 16.2727 39.8977 16.2727ZM47.8381 16.2727V4.27273H49.8608V5.71591H49.9801C50.0862 5.50379 50.2358 5.27841 50.429 5.03977C50.6222 4.79735 50.8835 4.59091 51.2131 4.42045C51.5426 4.24621 51.9631 4.15909 52.4744 4.15909C53.1487 4.15909 53.7566 4.33144 54.2983 4.67614C54.8438 5.01705 55.2756 5.52273 55.5938 6.19318C55.9157 6.85985 56.0767 7.67803 56.0767 8.64773C56.0767 9.60606 55.9195 10.4205 55.6051 11.0909C55.2907 11.7614 54.8627 12.2727 54.321 12.625C53.7794 12.9773 53.1657 13.1534 52.4801 13.1534C51.9801 13.1534 51.5653 13.0701 51.2358 12.9034C50.9063 12.7367 50.6411 12.536 50.4403 12.3011C50.2434 12.0625 50.09 11.8371 49.9801 11.625H49.8949V16.2727H47.8381ZM49.8551 8.63636C49.8551 9.20076 49.9347 9.69508 50.0938 10.1193C50.2566 10.5436 50.4896 10.875 50.7926 11.1136C51.0994 11.3485 51.4706 11.4659 51.9062 11.4659C52.3608 11.4659 52.7415 11.3447 53.0483 11.1023C53.3551 10.8561 53.5862 10.5208 53.7415 10.0966C53.9006 9.66856 53.9801 9.18182 53.9801 8.63636C53.9801 8.0947 53.9025 7.61364 53.7472 7.19318C53.5919 6.77273 53.3608 6.44318 53.054 6.20455C52.7472 5.96591 52.3646 5.84659 51.9062 5.84659C51.4669 5.84659 51.0938 5.96212 50.7869 6.19318C50.4801 6.42424 50.2472 6.74811 50.0881 7.16477C49.9328 7.58144 49.8551 8.07197 49.8551 8.63636ZM62.196 4.27273V5.86364H57.179V4.27273H62.196ZM58.4176 2.18182H60.4744V10.375C60.4744 10.6515 60.5161 10.8636 60.5994 11.0114C60.6866 11.1553 60.8002 11.2538 60.9403 11.3068C61.0805 11.3598 61.2358 11.3864 61.4062 11.3864C61.535 11.3864 61.6525 11.3769 61.7585 11.358C61.8684 11.339 61.9517 11.322 62.0085 11.3068L62.3551 12.9148C62.2453 12.9527 62.0881 12.9943 61.8835 13.0398C61.6828 13.0852 61.4366 13.1117 61.1449 13.1193C60.6297 13.1345 60.1657 13.0568 59.7528 12.8864C59.34 12.7121 59.0123 12.4432 58.7699 12.0795C58.5313 11.7159 58.4138 11.2614 58.4176 10.7159V2.18182ZM63.9162 13V4.27273H65.973V13H63.9162ZM64.9503 3.03409C64.6245 3.03409 64.3442 2.92614 64.1094 2.71023C63.8745 2.49053 63.7571 2.22727 63.7571 1.92045C63.7571 1.60985 63.8745 1.34659 64.1094 1.13068C64.3442 0.910984 64.6245 0.801136 64.9503 0.801136C65.2798 0.801136 65.5601 0.910984 65.7912 1.13068C66.026 1.34659 66.1435 1.60985 66.1435 1.92045C66.1435 2.22727 66.026 2.49053 65.7912 2.71023C65.5601 2.92614 65.2798 3.03409 64.9503 3.03409ZM69.9631 10.2614L69.9574 7.77841H70.2869L73.4233 4.27273H75.8267L71.9688 8.56818H71.5426L69.9631 10.2614ZM68.0881 13V1.36364H70.1449V13H68.0881ZM73.5653 13L70.7244 9.02841L72.1108 7.57955L76.0256 13H73.5653Z" fill="black"/>
</g>
<defs>
<clipPath id="clip0_3_70">
<rect width="77" height="17" fill="white"/>
</clipPath>
</defs>
</svg>
